<?xml version="1.0" encoding="utf-8"?>
<!-- Generated by IcoMoon.io -->
<!DOCTYPE svg PUBLIC "-//W3C//DTD SVG 1.1//EN" "http://www.w3.org/Graphics/SVG/1.1/DTD/svg11.dtd">
<svg version="1.1" xmlns="http://www.w3.org/2000/svg" xmlns:xlink="http://www.w3.org/1999/xlink" width="64" height="64" viewBox="0 0 64 64">
<g>
</g>
	<path d="M53.526 41.088c-2.701 4.365-11.312 7.555-21.526 7.555-10.208 0-18.826-3.19-21.523-7.555-0.573-0.925-0.877-0.429-0.877 0.029 0 0.461 0 6.406 0 6.406 0 6.205 10.029 12.637 22.4 12.637s22.4-6.432 22.4-12.637c0 0 0-5.946 0-6.406 0-0.458-0.307-0.954-0.874-0.029zM53.558 24.72c-2.653 3.859-11.302 6.688-21.558 6.688s-18.906-2.829-21.558-6.688c-0.55-0.797-0.842-0.365-0.842-0.003 0 0.362 0 7.539 0 7.539 0 5.642 10.029 10.211 22.4 10.211s22.4-4.57 22.4-10.211c0 0 0-7.178 0-7.539 0-0.362-0.294-0.794-0.842 0.003zM32 3.84c-12.371 0-22.4 3.77-22.4 8.422v4.029c0 4.934 10.029 8.934 22.4 8.934s22.4-4 22.4-8.934v-4.026c0-4.656-10.029-8.426-22.4-8.426z" fill="#000000" />
</svg>
